<?xml version="1.0" standalone="no"?>
<!DOCTYPE svg PUBLIC "-//W3C//DTD SVG 20010904//EN"
 "http://www.w3.org/TR/2001/REC-SVG-20010904/DTD/svg10.dtd">
<svg version="1.0" xmlns="http://www.w3.org/2000/svg"
 width="747.000000pt" height="373.000000pt" viewBox="0 0 747.000000 373.000000"
 preserveAspectRatio="xMidYMid meet">

<g transform="translate(0.000000,373.000000) scale(0.100000,-0.100000)"
fill="#000000" stroke="none">
<path d="M0 1865 l0 -1865 3735 0 3735 0 0 1865 0 1865 -3735 0 -3735 0 0
-1865z m5935 940 c38 -66 39 -67 46 -39 3 16 14 64 24 107 26 117 29 86 5 -48
-20 -111 -21 -122 -6 -169 24 -76 36 -152 36 -221 0 -49 6 -75 28 -116 19 -37
28 -70 29 -109 2 -71 2 -70 11 -70 9 0 26 55 48 160 12 55 18 129 19 212 0 80
3 119 8 105 5 -12 7 -85 4 -162 -4 -110 -11 -160 -31 -235 l-27 -94 23 -72 22
-73 27 63 c45 106 55 165 35 222 -18 55 -15 70 5 22 l14 -33 11 50 c9 42 10
22 8 -125 -2 -157 -5 -183 -28 -255 -24 -75 -57 -145 -41 -85 44 155 54 204
54 260 l0 65 -23 -70 c-12 -38 -30 -84 -38 -100 -11 -21 -13 -36 -7 -47 5 -9
7 -52 4 -95 -3 -43 -6 -101 -8 -130 -2 -35 -10 -62 -25 -82 -36 -49 -6 -36 52
22 62 62 101 137 120 232 13 66 14 68 15 25 1 -59 -39 -170 -81 -225 -18 -23
-57 -60 -85 -81 -30 -22 -53 -46 -53 -57 0 -16 -60 -135 -83 -164 -13 -18 -4
-16 48 9 40 20 47 28 60 72 8 27 15 56 15 63 0 7 4 13 10 13 10 0 3 -54 -12
-82 -5 -11 -5 -18 1 -18 16 0 70 72 103 138 17 34 33 60 36 57 12 -11 -65
-144 -109 -186 -25 -25 -53 -59 -62 -75 -25 -48 -94 -120 -145 -150 -40 -25
-44 -29 -24 -32 35 -5 26 -27 -30 -73 -71 -56 -140 -87 -245 -108 -97 -20
-155 -46 -279 -127 -105 -68 -229 -134 -254 -134 -21 0 -51 36 -44 54 2 6 48
31 101 56 110 50 205 116 232 161 16 26 19 53 20 162 2 154 9 188 55 254 l34
50 -82 109 c-44 60 -92 125 -104 144 l-24 35 32 -35 c17 -19 72 -88 121 -154
82 -108 89 -116 89 -86 0 37 17 73 31 65 16 -11 10 1 -50 96 -71 115 -122 209
-112 209 4 0 14 -12 22 -27 32 -64 176 -293 184 -293 1 0 0 22 -3 48 -3 32 1
59 11 78 15 30 15 31 -34 95 -54 69 -139 200 -139 214 0 5 21 -22 46 -61 26
-38 69 -100 97 -138 48 -64 52 -67 58 -45 3 14 12 34 19 46 17 26 11 35 -87
149 -69 80 -124 166 -138 214 -4 14 13 -10 38 -52 45 -78 172 -238 189 -238 5
0 7 4 4 9 -3 5 2 32 11 61 16 49 16 54 -1 83 -32 60 -127 148 -236 221 -30 20
-50 36 -44 36 22 0 133 -80 203 -145 l71 -67 -1 43 c0 44 -1 44 -82 97 -45 29
-107 75 -137 103 -55 51 -44 49 18 -3 34 -29 178 -128 186 -128 17 0 -59 103
-127 174 -171 174 -219 226 -211 226 4 0 18 -10 31 -22 13 -12 23 -17 23 -12
0 16 -39 74 -50 74 -5 0 -10 4 -10 9 0 5 33 -7 73 -28 79 -41 187 -84 194 -77
3 2 -1 14 -7 27 -10 18 -15 59 -20 150 0 14 -93 100 -142 134 -59 39 -59 47
-1 13 59 -34 118 -85 147 -127 19 -27 39 -42 68 -50 23 -7 54 -26 70 -42 16
-16 31 -29 33 -29 1 0 5 10 8 21 12 45 -79 166 -154 205 -16 8 -29 17 -29 19
0 3 18 -4 41 -15 55 -29 122 -98 153 -158 14 -27 36 -56 50 -65 13 -9 32 -34
42 -56 l17 -40 22 23 c17 18 24 42 29 101 7 75 6 78 -30 143 -20 37 -63 101
-96 142 l-59 75 58 -61 c32 -34 76 -92 98 -129z m-4350 113 c-54 -60 -88 -110
-123 -182 -21 -44 -23 -57 -16 -125 5 -59 12 -81 28 -98 l22 -22 13 34 c6 19
25 45 41 58 15 13 38 43 49 66 29 56 86 118 140 153 61 38 76 36 18 -3 -81
-54 -152 -153 -140 -198 7 -27 9 -27 39 9 14 17 44 35 67 42 23 7 46 19 51 27
20 33 91 102 134 131 69 46 72 36 4 -14 -89 -66 -116 -106 -118 -177 -2 -33
-9 -73 -18 -89 -8 -17 -13 -30 -11 -30 1 0 34 11 71 25 104 38 154 66 170 94
9 14 13 18 10 9 -6 -21 5 -23 22 -6 7 7 12 8 12 2 0 -6 -10 -16 -23 -23 -13
-7 -28 -26 -34 -42 -13 -33 -8 -36 19 -12 10 9 21 14 24 11 2 -3 -13 -19 -36
-35 -22 -17 -54 -50 -71 -74 -18 -24 -69 -80 -113 -124 -45 -44 -92 -99 -104
-123 l-22 -43 31 18 c17 10 72 48 122 86 86 63 89 64 37 17 -30 -28 -87 -72
-127 -98 -70 -45 -73 -48 -73 -87 l0 -40 68 63 c67 63 188 149 197 140 3 -3
-19 -21 -48 -40 -91 -61 -171 -133 -210 -190 -37 -54 -37 -54 -22 -91 8 -20
15 -48 15 -62 0 -14 2 -25 5 -25 18 0 167 192 200 256 15 30 30 53 32 50 6 -6
-43 -101 -75 -145 -15 -20 -60 -76 -100 -124 -68 -79 -72 -88 -58 -103 14 -13
21 -42 17 -66 -5 -35 78 68 160 199 27 43 49 74 49 69 0 -15 -79 -142 -134
-215 -31 -41 -56 -77 -56 -81 0 -3 6 -12 12 -18 7 -7 13 -38 13 -71 l0 -59 48
71 c26 40 71 111 99 160 28 48 53 85 56 83 6 -7 -56 -118 -118 -212 -46 -69
-49 -77 -34 -89 11 -7 18 -27 18 -49 1 -43 8 -45 32 -8 23 35 192 252 212 272
28 29 1 -11 -105 -153 l-104 -137 31 -44 c48 -66 60 -122 60 -273 l0 -133 36
-40 c40 -44 184 -132 257 -156 27 -9 51 -23 54 -31 8 -21 -14 -63 -33 -63 -22
0 -199 95 -289 154 -102 68 -164 96 -237 106 -113 16 -200 57 -270 125 -44 43
-46 52 -15 57 21 3 20 4 -8 20 -54 29 -126 100 -157 155 -17 30 -42 61 -55 70
-42 28 -123 161 -123 201 0 9 16 -14 35 -53 19 -38 51 -88 70 -110 36 -39 36
-40 30 -11 -17 82 -18 89 -7 82 7 -4 12 -15 12 -25 0 -10 7 -38 15 -63 13 -37
24 -49 61 -67 25 -13 47 -21 48 -20 2 2 -18 42 -45 89 -27 47 -47 90 -45 97 3
7 -10 21 -28 32 -54 34 -125 117 -153 179 -16 37 -27 80 -29 122 l-3 65 9 -58
c14 -86 64 -183 127 -244 50 -50 97 -76 59 -34 -23 25 -49 112 -37 124 6 6 -2
34 -19 71 -56 125 -63 167 -64 356 -1 96 0 154 2 128 4 -56 12 -60 31 -17 19
42 25 30 6 -14 -8 -20 -15 -50 -15 -66 0 -30 48 -182 68 -217 11 -18 11 -18
12 3 0 12 9 47 21 78 19 52 20 58 5 103 -33 99 -48 199 -48 312 -1 63 4 126
10 140 8 19 9 -1 5 -80 -6 -113 5 -208 38 -332 23 -83 39 -93 39 -25 1 56 14
112 35 144 13 19 19 52 21 113 2 53 13 119 29 172 l25 87 -21 112 c-11 62 -23
117 -26 122 -3 6 -1 7 5 3 6 -3 18 -41 27 -84 9 -42 18 -88 21 -101 5 -22 8
-19 37 32 36 62 144 197 159 197 6 0 -11 -24 -37 -52z m1853 -347 l-32 -29 27
-36 c16 -20 33 -36 38 -36 6 0 7 -4 4 -10 -12 -19 -30 -10 -46 22 -8 17 -21
34 -27 36 -18 6 -27 -28 -13 -49 10 -17 8 -19 -16 -19 -19 0 -24 3 -16 11 10
10 9 43 -2 112 -4 22 -1 27 16 27 16 0 19 -3 12 -12 -5 -7 -7 -24 -4 -38 l7
-24 24 34 c27 40 41 51 52 44 4 -3 -7 -18 -24 -33z m160 19 c4 -12 2 -13 -9
-4 -8 6 -25 11 -39 9 -19 -1 -25 -7 -25 -25 0 -17 7 -26 25 -31 24 -7 24 -7 3
-8 -19 -1 -23 -7 -23 -32 0 -30 2 -31 35 -27 19 2 35 1 35 -3 0 -4 -21 -9 -47
-11 l-48 -3 0 78 0 78 44 -3 c29 -2 46 -8 49 -18z m123 10 c24 -14 24 -46 0
-67 -16 -13 -18 -20 -9 -37 6 -12 16 -24 22 -28 6 -5 2 -8 -10 -8 -16 0 -23 8
-27 30 -8 39 -47 44 -47 6 0 -13 6 -27 13 -29 6 -3 -1 -6 -18 -6 -22 -1 -26 2
-17 11 16 16 16 110 0 126 -9 9 -3 12 31 12 23 0 51 -5 62 -10z m64 0 c-3 -5
2 -24 11 -41 l16 -32 18 29 c11 15 17 31 14 35 -4 7 26 22 33 15 2 -2 -10 -25
-28 -50 -21 -32 -30 -55 -26 -72 3 -19 0 -24 -15 -24 -13 0 -17 4 -11 13 14
23 11 39 -18 88 -27 46 -27 49 -8 49 11 0 17 -4 14 -10z m252 -13 c-3 -8 -8
-39 -12 -69 l-7 -55 31 -5 c17 -2 33 0 35 6 2 6 5 3 5 -6 1 -19 -16 -22 -67
-12 -28 6 -30 8 -20 35 5 16 8 49 6 74 -3 39 0 45 15 45 12 0 17 -5 14 -13z
m-707 -144 c0 -2 -7 -3 -15 -3 -8 0 -15 9 -15 19 0 25 -9 30 -43 24 -20 -4
-27 -11 -27 -29 0 -17 -6 -24 -19 -24 -18 0 -18 1 0 37 10 21 19 45 19 54 0
10 5 30 11 46 10 28 11 27 50 -47 21 -41 39 -76 39 -77z m-178 126 c16 -8 19
-17 14 -40 -3 -15 -1 -31 4 -34 6 -3 10 -17 10 -31 0 -17 -8 -27 -26 -34 -32
-12 -77 -13 -70 -1 6 9 -7 92 -19 123 -5 13 0 17 27 21 18 2 34 5 36 5 2 1 12
-3 24 -9z m1078 -8 c5 -11 10 -38 10 -60 0 -31 -6 -44 -27 -60 -28 -23 -54
-21 -87 8 -14 12 -17 26 -13 58 6 57 21 73 68 73 28 0 41 -5 49 -19z m141 -12
c11 -5 17 -14 14 -19 -3 -5 -19 -1 -34 8 -28 15 -31 15 -49 -1 -47 -43 -29
-121 26 -115 33 4 44 43 15 51 -14 4 -13 5 5 6 28 1 36 -17 23 -52 -13 -34
-47 -36 -86 -5 -24 19 -27 26 -22 65 7 64 54 91 108 62z m-1431 -19 c0 -5 -16
-10 -35 -10 -32 0 -35 -2 -35 -31 0 -28 2 -31 25 -25 14 4 25 2 25 -4 0 -5
-10 -10 -21 -10 -17 0 -20 -4 -15 -22 3 -13 6 -26 6 -29 0 -9 54 3 61 14 4 5
9 5 13 -2 8 -12 3 -14 -55 -29 l-37 -10 -6 57 c-4 31 -11 63 -16 71 -7 12 -2
18 23 27 41 15 67 16 67 3z m1553 -1 c12 -7 25 -17 29 -23 19 -27 2 -99 -26
-118 -17 -12 -59 -9 -78 5 -30 24 -27 89 7 122 27 28 37 30 68 14z m-1683 -27
c0 -5 -14 -9 -31 -10 -39 -1 -41 -4 -33 -36 5 -22 10 -25 33 -21 25 5 25 5 4
-6 -26 -14 -30 -47 -7 -56 8 -3 26 -1 40 5 13 7 24 7 24 2 0 -13 -12 -18 -56
-25 l-39 -7 -2 42 c-2 23 -9 55 -17 71 -14 28 -14 29 17 38 42 12 67 13 67 3z
m1929 -47 c8 -8 11 -18 7 -22 -4 -4 -12 0 -17 10 -13 22 -59 23 -59 1 0 -9 14
-32 30 -51 25 -28 28 -38 20 -53 -6 -11 -21 -20 -33 -20 -27 0 -70 28 -62 40
3 5 15 0 25 -10 24 -24 48 -26 57 -4 3 9 -6 28 -26 48 -33 34 -38 55 -19 74
15 15 56 7 77 -13z m-2057 -10 c9 -20 8 -28 -5 -43 -16 -18 -16 -20 1 -35 10
-10 24 -17 30 -17 20 0 13 -17 -8 -23 -12 -3 -20 0 -20 7 0 7 -9 21 -20 31
-30 27 -49 5 -26 -29 9 -15 12 -26 6 -26 -5 0 -13 0 -17 0 -4 0 -8 6 -8 13 0
18 -26 90 -38 105 -12 15 -11 16 28 30 48 17 65 14 77 -13z m2155 -21 c24 -9
43 -21 43 -25 0 -13 -7 -11 -35 7 -28 18 -40 14 -48 -17 -4 -15 0 -23 14 -26
10 -3 19 -9 19 -14 0 -12 -7 -11 -30 1 -15 8 -19 5 -25 -17 -7 -30 6 -43 45
-43 18 0 21 -3 12 -12 -9 -9 -21 -7 -51 6 l-39 18 25 54 c14 30 22 61 19 69
-7 19 -1 19 51 -1z m-2297 -10 c0 -8 -4 -13 -9 -9 -5 3 -21 0 -35 -6 -22 -10
-24 -15 -14 -33 15 -29 14 -29 37 -16 13 6 21 7 21 1 0 -5 -9 -13 -20 -16 -25
-8 -25 -20 0 -45 19 -19 19 -20 0 -30 -24 -13 -33 -13 -25 1 9 14 -23 100 -42
116 -12 9 -7 15 29 31 54 25 58 26 58 6z m2420 -46 c22 -13 40 -30 40 -38 -1
-12 -3 -12 -14 3 -7 9 -16 17 -19 17 -8 0 -62 -102 -59 -112 2 -10 -2 -10 -22
-2 -14 5 -14 8 -3 18 21 17 67 102 60 110 -3 3 -15 6 -25 6 -11 0 -16 5 -13
10 8 14 11 13 55 -12z m-1249 -81 c27 -21 39 -54 39 -112 0 -61 -19 -108 -49
-125 -32 -17 -38 -12 -45 34 -15 95 -54 74 -121 -63 l-38 -78 49 -109 c51
-116 116 -237 142 -267 11 -12 24 -16 39 -12 20 5 23 2 23 -24 0 -24 -8 -36
-37 -56 -21 -14 -46 -25 -56 -25 -53 0 -129 139 -171 313 -11 48 -23 87 -27
87 -3 0 -14 -17 -23 -38 -14 -31 -17 -63 -14 -190 3 -167 8 -155 -62 -167 -19
-3 -40 -2 -47 3 -9 6 -13 95 -15 348 l-3 340 -28 33 c-19 23 -26 41 -23 60 2
14 5 29 5 34 1 4 39 7 86 7 l85 0 0 -187 1 -188 33 85 c69 179 121 271 169
297 28 16 68 16 88 0z m509 -14 c10 -9 2 -171 -9 -192 -8 -14 -21 -21 -41 -21
-34 0 -50 23 -50 73 0 33 -1 34 -46 41 -26 3 -65 6 -87 6 l-40 0 7 -46 c3 -26
6 -91 6 -144 l0 -97 83 1 82 1 0 -50 0 -50 -83 0 -82 0 0 -107 c0 -58 -3 -113
-6 -122 -5 -14 6 -16 84 -16 l91 0 3 36 c4 46 35 62 69 35 17 -14 22 -31 27
-91 l5 -73 -108 6 c-60 4 -149 7 -199 7 l-91 0 0 362 c0 280 -3 362 -12 365
-14 5 -18 74 -6 86 7 8 395 -3 403 -10z m401 -35 c89 -52 137 -161 126 -287
-7 -85 -36 -149 -81 -181 -20 -14 -36 -31 -36 -39 0 -17 95 -198 118 -224 9
-10 24 -16 34 -14 29 8 34 -32 7 -59 -85 -83 -180 13 -239 244 -10 39 -13 42
-45 42 l-34 0 -3 -137 -3 -138 -39 -3 c-22 -2 -49 -1 -60 2 -21 5 -21 8 -21
350 0 341 0 345 -22 375 -14 18 -23 45 -23 67 l0 36 138 -4 c128 -3 140 -5
183 -30z m-1529 -14 c18 -32 28 -122 53 -474 9 -118 18 -233 21 -256 6 -37 4
-42 -17 -47 -40 -11 -86 -8 -97 6 -7 7 -14 64 -18 125 l-7 112 -76 0 -76 0
-18 -87 c-21 -99 -51 -169 -84 -190 -31 -21 -75 -13 -91 17 -13 23 -11 30 22
85 19 33 45 87 56 120 31 89 59 266 62 386 3 90 0 110 -14 126 -10 11 -18 35
-18 55 l0 36 118 7 c64 3 124 8 132 9 25 6 34 1 52 -30z m-571 -57 c44 -30 62
-82 57 -173 -2 -53 -10 -83 -31 -124 -24 -47 -26 -55 -12 -62 58 -33 85 -95
85 -197 0 -67 -4 -87 -28 -132 -48 -94 -147 -143 -308 -155 l-81 -7 -7 35 c-3
20 -5 178 -4 352 2 312 1 316 -20 339 -12 13 -22 35 -22 49 0 24 7 29 78 52
160 53 239 59 293 23z m2452 0 c23 -33 77 -164 107 -259 33 -106 43 -119 53
-76 3 13 19 70 36 128 18 60 30 122 29 145 -2 38 -1 40 26 40 36 0 65 -37 73
-93 5 -36 -3 -58 -72 -197 l-78 -157 7 -132 c4 -72 8 -142 9 -156 2 -24 -1
-25 -48 -25 -89 1 -85 -7 -78 172 l5 158 -56 140 c-74 182 -97 228 -125 240
-17 8 -21 17 -19 40 2 24 10 32 38 42 38 13 80 9 93 -10z m-733 -867 c377 -26
1030 -123 1030 -153 0 -5 -13 -7 -32 -3 -488 103 -1188 165 -1697 152 -134 -3
-267 -8 -295 -11 -28 -3 -114 -10 -191 -15 -253 -20 -568 -62 -783 -106 -114
-23 -146 -25 -128 -7 3 4 50 15 104 25 340 62 624 98 937 118 94 6 190 12 215
14 79 7 690 -3 840 -14z m-880 -129 c0 -5 -3 -11 -7 -13 -5 -2 -19 -15 -32
-30 l-23 -27 26 -28 c14 -15 26 -31 26 -35 0 -5 7 -8 16 -8 8 0 12 -4 9 -10
-9 -15 -46 -12 -43 3 2 7 -6 25 -18 39 -16 20 -24 24 -33 15 -14 -14 -14 -40
1 -55 9 -9 5 -12 -17 -11 -17 0 -24 3 -17 6 12 5 10 62 -4 131 -3 16 0 22 14
22 15 0 17 -7 14 -42 l-3 -43 28 35 c15 19 26 36 25 39 -4 4 19 21 31 21 4 0
7 -4 7 -9z m150 0 c0 -4 -18 -8 -40 -8 -22 0 -43 -2 -45 -5 -11 -10 9 -48 26
-48 10 0 21 -4 24 -10 4 -6 -5 -10 -19 -10 -22 0 -26 -4 -26 -30 0 -26 4 -30
28 -30 15 0 33 5 40 12 9 9 12 8 12 -5 0 -13 -9 -17 -39 -17 -22 0 -45 -2 -53
-5 -10 -4 -13 13 -13 80 l0 85 53 0 c28 0 52 -4 52 -9z m138 -28 c2 -22 -3
-35 -17 -46 l-21 -14 25 -27 c31 -34 31 -36 -1 -36 -14 0 -23 4 -19 9 9 16
-17 61 -37 61 -21 0 -25 -39 -6 -58 9 -9 6 -12 -16 -12 -24 0 -26 2 -16 14 13
17 12 101 -2 129 -8 16 -4 18 49 15 57 -3 58 -4 61 -35z m57 27 c-5 -9 20 -70
30 -70 10 0 35 61 30 70 -3 6 6 10 20 10 24 0 25 -1 10 -16 -29 -29 -57 -95
-51 -120 5 -20 3 -24 -16 -24 -17 0 -19 3 -10 12 19 19 14 43 -18 98 -28 47
-28 50 -9 50 11 0 17 -4 14 -10z m321 -4 c10 -8 15 -18 11 -22 -4 -5 -11 -3
-15 3 -4 6 -14 12 -22 13 -63 9 -70 -29 -11 -59 48 -25 58 -48 32 -74 -15 -15
-27 -18 -55 -13 -34 7 -54 22 -42 33 3 3 12 0 20 -6 8 -7 27 -11 43 -9 42 5
36 34 -12 61 -45 25 -54 47 -30 71 20 20 55 21 81 2z m74 -31 c-8 -33 -7 -35
25 -41 19 -3 38 -3 44 1 15 9 14 52 -1 58 -7 3 0 6 16 6 24 1 27 -1 16 -14 -8
-10 -11 -37 -8 -80 3 -57 2 -65 -13 -65 -10 0 -21 5 -24 10 -3 6 -1 10 4 10 6
0 11 14 11 30 0 28 -2 30 -41 30 -41 0 -41 0 -37 -35 3 -28 1 -35 -13 -35 -15
0 -16 5 -7 43 5 23 8 59 6 80 -3 29 0 37 13 37 14 0 16 -6 9 -35z m-928 -45
c17 -38 35 -70 39 -70 5 0 9 -4 9 -10 0 -5 -9 -10 -20 -10 -12 0 -20 6 -19 13
4 30 -3 37 -36 37 -19 0 -36 -4 -36 -10 -1 -5 -2 -16 -3 -22 -1 -14 -16 -28
-30 -28 -5 0 -4 6 2 13 5 6 18 45 28 85 10 39 22 72 27 72 4 0 22 -31 39 -70z
m1165 44 c21 -21 25 -32 20 -66 -7 -51 -31 -78 -72 -78 -54 0 -82 48 -65 111
17 63 71 78 117 33z m-1303 0 c19 -18 19 -20 6 -44 -7 -13 -6 -21 5 -30 37
-31 2 -80 -57 -80 l-38 0 -1 48 c-1 50 -3 67 -14 94 -5 12 0 18 17 21 47 9 67
7 82 -9z m1459 -8 c21 -16 22 -59 1 -77 -8 -7 -32 -13 -52 -13 -34 -1 -37 -3
-35 -28 1 -22 -3 -28 -18 -28 -20 0 -27 16 -9 22 5 2 11 33 12 70 l3 68 40 0
c22 -1 48 -7 58 -14z m-1615 -94 c4 -28 -24 -40 -45 -19 -14 13 -14 19 -3 32
18 22 44 15 48 -13z m1740 4 c5 -25 -12 -39 -37 -31 -24 7 -27 25 -9 43 17 17
42 11 46 -12z"/>
<path d="M5640 2639 c0 -58 47 -148 71 -134 5 4 19 -1 31 -9 12 -9 18 -16 12
-16 -5 0 -15 5 -22 12 -6 6 -14 9 -18 6 -7 -8 34 -31 44 -24 12 7 14 74 2 81
-6 3 -8 11 -4 16 12 19 -71 89 -106 89 -5 0 -10 -10 -10 -21z m117 -124 c0 -8
-4 -12 -9 -9 -5 3 -6 10 -3 15 9 13 12 11 12 -6z"/>
<path d="M5976 2598 c-7 -58 -5 -72 12 -95 10 -16 22 -35 26 -43 12 -28 -3
114 -17 160 l-14 45 -7 -67z"/>
<path d="M5806 2588 c-13 -50 -6 -138 15 -183 29 -62 34 -62 32 -2 l-3 52 14
-35 13 -35 7 47 c8 55 -5 114 -35 152 -25 32 -35 33 -43 4z"/>
<path d="M5430 2583 c0 -5 9 -22 19 -39 13 -22 43 -43 96 -68 41 -20 78 -36
81 -36 3 0 -2 10 -10 22 -9 12 -16 30 -16 39 0 11 -14 22 -37 30 -21 6 -59 22
-85 36 -27 13 -48 20 -48 16z"/>
<path d="M5937 2478 c-11 -27 -38 -130 -51 -200 -2 -9 3 -19 10 -22 10 -4 13
-14 9 -33 -5 -24 -2 -21 21 15 33 53 44 47 16 -9 -13 -26 -18 -48 -13 -61 12
-32 49 57 45 107 -3 34 -2 36 4 10 l8 -30 7 34 c12 60 7 135 -13 179 -10 23
-21 42 -24 42 -3 0 -12 -15 -19 -32z m3 -175 c-1 -5 -7 -19 -15 -33 -12 -22
-14 -23 -20 -7 -9 23 1 47 20 47 8 0 15 -3 15 -7z m15 -93 c-9 -16 -18 -30
-21 -30 -2 0 2 14 11 30 9 17 18 30 21 30 2 0 -2 -13 -11 -30z"/>
<path d="M5630 2492 c0 -15 69 -75 88 -77 10 0 32 -11 49 -23 l30 -21 -11 39
c-7 30 -15 40 -31 40 -11 0 -38 11 -60 25 -41 25 -65 31 -65 17z"/>
<path d="M5507 2454 c28 -39 168 -174 181 -174 5 0 -11 20 -36 45 -37 37 -44
50 -39 72 5 26 1 30 -51 53 -30 14 -60 27 -65 29 -6 2 -1 -9 10 -25z"/>
<path d="M5643 2403 c-24 -9 -13 -31 33 -72 49 -43 184 -117 184 -100 0 5 -30
24 -67 43 -78 40 -79 48 -1 11 67 -32 81 -32 37 1 -19 15 -26 24 -16 21 51
-18 -27 48 -95 80 -52 24 -55 25 -75 16z"/>
<path d="M6016 2292 c-3 -20 -19 -66 -36 -100 -22 -46 -27 -68 -21 -80 9 -15
11 -14 21 8 12 27 8 0 -5 -35 l-8 -20 16 20 c19 23 22 13 6 -16 -5 -11 -9 -28
-6 -37 2 -9 12 10 22 43 10 33 22 64 26 69 13 15 -11 -75 -31 -117 -11 -22
-18 -43 -15 -45 10 -10 63 124 70 175 7 52 -9 158 -24 168 -5 2 -11 -12 -15
-33z"/>
<path d="M5700 2245 c0 -17 67 -95 82 -95 5 0 7 4 4 8 -2 4 4 8 14 8 10 0 17
-3 14 -7 -2 -4 17 -24 42 -44 25 -20 42 -40 39 -44 -4 -3 -14 3 -23 14 -10 11
-26 27 -37 34 -11 8 2 -8 30 -37 46 -49 73 -70 45 -37 -7 9 -10 18 -7 21 3 4
15 -9 26 -27 12 -20 21 -27 21 -18 0 9 -7 22 -15 29 -17 14 -21 35 -4 24 8 -5
8 -1 0 14 -6 12 -16 24 -21 27 -6 4 -8 10 -5 15 3 5 -5 16 -17 25 -13 8 -21
19 -19 23 6 11 -121 82 -146 82 -14 0 -23 -6 -23 -15z m178 -108 c-1 -3 8 -18
22 -34 l25 -28 -26 23 c-14 12 -26 29 -26 37 0 8 2 13 5 11 2 -2 2 -7 0 -9z"/>
<path d="M5795 2140 c3 -5 11 -10 16 -10 6 0 7 5 4 10 -3 6 -11 10 -16 10 -6
0 -7 -4 -4 -10z"/>
<path d="M5760 2117 c0 -42 29 -121 62 -171 18 -26 48 -71 66 -99 17 -28 32
-45 32 -39 0 22 -31 75 -72 123 -21 25 -38 49 -38 53 0 15 90 -98 109 -138 12
-25 20 -34 21 -22 0 10 -18 46 -41 79 -22 34 -31 53 -20 43 12 -11 21 -15 21
-9 0 15 -36 44 -44 36 -4 -4 -4 0 -1 9 6 15 11 13 32 -13 14 -16 28 -27 31
-24 3 3 -5 17 -19 32 -24 28 -24 28 -1 8 28 -23 52 -62 31 -50 -9 6 -11 3 -6
-9 4 -10 3 -15 -3 -11 -16 10 -11 -8 10 -35 11 -14 20 -20 20 -13 0 6 -4 15
-10 18 -5 3 -10 11 -10 16 0 6 4 8 8 5 19 -11 7 42 -17 74 -37 51 -101 118
-133 141 l-28 20 0 -24z"/>
<path d="M6060 2063 c-11 -27 -34 -65 -50 -85 -17 -20 -30 -45 -30 -54 0 -15
4 -14 26 7 23 20 25 21 16 4 -5 -11 -20 -29 -31 -39 -28 -25 -27 -44 1 -20 21
19 21 18 -1 -14 -13 -18 -20 -36 -17 -39 3 -3 1 -12 -5 -20 -6 -7 -8 -13 -4
-13 4 0 2 -7 -5 -15 -8 -9 -9 -15 -2 -15 11 0 27 19 27 32 0 16 87 97 98 92
24 -9 50 68 42 123 -6 44 -29 103 -40 103 -2 0 -13 -21 -25 -47z m-29 -191
c-11 -16 -28 -35 -38 -43 -17 -13 -17 -13 -3 6 20 28 53 65 57 65 3 0 -5 -13
-16 -28z"/>
<path d="M5756 1938 c-20 -75 -1 -129 74 -215 16 -17 33 -40 39 -50 7 -13 13
-15 21 -7 15 15 -8 69 -55 134 -19 26 -35 51 -35 55 0 10 75 -87 92 -120 15
-28 16 -28 23 -7 8 27 -22 80 -89 162 -25 30 -46 58 -46 62 0 18 -18 6 -24
-14z m44 -119 c0 -6 -4 -7 -10 -4 -5 3 -10 11 -10 16 0 6 5 7 10 4 6 -3 10
-11 10 -16z m96 -51 c23 -45 12 -43 -15 4 -12 22 -18 37 -12 34 6 -4 18 -21
27 -38z m-21 -69 c22 -41 11 -36 -14 7 -12 19 -16 32 -11 29 6 -3 17 -19 25
-36z"/>
<path d="M6140 1895 c-7 -14 -49 -53 -93 -86 -53 -42 -75 -64 -66 -69 7 -5 19
-6 28 -3 12 3 11 0 -3 -11 -14 -11 -22 -13 -27 -5 -5 8 -9 8 -14 -1 -6 -10 -9
-10 -15 0 -5 9 -9 9 -14 1 -4 -6 -1 -11 6 -11 9 -1 7 -5 -4 -14 -16 -12 -16
-14 6 -24 18 -8 23 -7 23 4 0 8 -4 14 -9 14 -5 0 -6 5 -3 10 7 12 26 14 24 3
-5 -32 3 -33 49 -8 90 52 124 99 135 183 6 47 -3 54 -23 17z m-110 -130 c-19
-14 -36 -25 -39 -25 -10 1 53 50 63 50 6 0 -5 -11 -24 -25z"/>
<path d="M6029 1833 l-44 -47 42 33 c44 33 58 49 51 56 -2 3 -24 -16 -49 -42z"/>
<path d="M5736 1774 c-8 -31 3 -96 15 -88 5 3 6 -2 3 -10 -7 -19 73 -107 91
-100 39 15 25 60 -49 155 -51 65 -54 67 -60 43z m68 -90 c3 -8 2 -12 -4 -9 -6
3 -10 10 -10 16 0 14 7 11 14 -7z m35 -98 c-3 -3 -18 12 -33 32 l-29 37 34
-32 c18 -18 31 -35 28 -37z m6 34 c10 -11 16 -20 13 -20 -3 0 -13 9 -23 20
-10 11 -16 20 -13 20 3 0 13 -9 23 -20z"/>
<path d="M6018 1667 c-105 -55 -117 -65 -113 -85 3 -18 0 -22 -11 -18 -9 3
-12 1 -9 -4 3 -6 1 -10 -4 -10 -6 0 -11 -13 -11 -30 0 -33 11 -38 30 -15 7 8
16 13 20 10 11 -7 53 12 103 44 28 18 34 27 25 33 -9 5 -5 7 12 6 19 -2 31 7
57 46 31 45 43 87 26 85 -5 0 -61 -28 -125 -62z m-18 -32 c0 -2 -17 -13 -37
-24 -21 -11 -31 -20 -23 -21 13 0 13 -1 0 -10 -8 -5 -19 -10 -25 -10 -5 0 -3
5 5 10 13 9 13 10 0 10 -8 1 5 12 30 25 50 27 50 27 50 20z m-10 -50 c0 -8
-91 -57 -96 -52 -3 3 16 17 43 31 54 28 53 28 53 21z m25 -15 c-7 -11 -79 -50
-92 -50 -7 0 86 58 95 59 2 1 0 -4 -3 -9z"/>
<path d="M5690 1620 c0 -66 8 -89 62 -174 44 -69 47 -67 14 9 -29 65 -26 73 5
13 28 -55 27 -55 43 -32 12 16 12 24 -6 59 l-19 40 20 -25 c11 -14 21 -29 21
-33 0 -5 4 -6 9 -3 19 12 -6 58 -69 131 -36 41 -68 75 -72 75 -5 0 -8 -27 -8
-60z m106 -142 c8 -16 13 -32 10 -35 -2 -3 -14 14 -26 37 -12 23 -17 39 -11
35 6 -3 18 -20 27 -37z"/>
<path d="M6071 1554 c-12 -9 -59 -32 -103 -51 -82 -36 -136 -72 -107 -74 8 0
4 -4 -9 -10 -13 -5 -20 -13 -17 -19 3 -5 0 -10 -8 -10 -8 0 -18 -7 -21 -16 -9
-24 -7 -36 5 -29 6 4 42 11 81 16 98 12 122 29 174 127 45 84 46 94 5 66z
m-86 -69 c-16 -8 -37 -14 -45 -14 -8 0 -1 7 15 14 17 8 37 14 45 14 8 0 2 -7
-15 -14z m-26 -39 c-2 -2 -22 -6 -44 -9 -28 -5 -34 -4 -20 3 19 8 73 14 64 6z
m-30 -30 c-2 -2 -22 -6 -44 -9 -28 -5 -34 -4 -20 3 19 8 73 14 64 6z m1 -25
c-14 -4 -43 -11 -65 -14 l-40 -6 40 14 c22 7 51 13 65 13 l25 0 -25 -7z"/>
<path d="M5617 1548 c-8 -22 2 -79 31 -178 28 -96 43 -107 19 -13 -8 29 -11
50 -7 48 10 -6 30 -87 31 -127 0 -29 1 -31 10 -12 8 15 6 37 -5 79 -21 80 -12
83 12 5 10 -35 22 -58 25 -53 4 6 0 31 -7 57 -8 25 -10 43 -5 40 5 -3 9 -9 9
-14 0 -5 5 -21 11 -37 8 -22 12 -24 19 -13 13 21 5 43 -48 133 -50 86 -83 115
-95 85z"/>
<path d="M5542 1434 c-33 -51 -52 -151 -52 -279 0 -110 -1 -110 -36 -158 -48
-67 -121 -109 -298 -177 -23 -8 -25 -13 -16 -29 9 -19 13 -18 77 18 38 20 114
67 170 104 125 83 184 110 288 131 92 19 170 53 227 98 l41 32 -27 7 c-15 4
-79 11 -142 15 l-114 7 0 -26 c0 -14 -3 -27 -7 -29 -5 -1 -18 -17 -30 -35
l-22 -31 32 9 c40 11 60 12 53 0 -3 -4 -27 -11 -54 -15 -27 -3 -57 -13 -68
-21 -30 -23 -40 -17 -15 9 24 25 24 36 4 141 -10 57 11 15 24 -48 l13 -62 -5
84 c-5 94 4 103 15 14 7 -58 7 -58 19 -28 10 24 10 37 0 65 -21 60 -21 66 -1
31 l19 -34 1 44 c0 72 -41 199 -66 199 -4 0 -17 -16 -30 -36z m78 -124 c6 -11
8 -20 6 -20 -3 0 -10 9 -16 20 -6 11 -8 20 -6 20 3 0 10 -9 16 -20z m-71 -184
c1 -67 -5 -55 -12 24 -4 42 -3 58 3 45 5 -11 9 -42 9 -69z m190 50 c-2 -2 -20
-6 -39 -10 -25 -4 -31 -3 -20 4 14 9 69 15 59 6z m46 -34 c-88 -7 -120 -14
-100 -23 18 -7 17 -8 -7 -8 -47 -2 -22 27 30 34 26 4 54 7 62 9 8 1 22 0 30
-3 9 -4 3 -7 -15 -9z m-40 -22 c-3 -5 -12 -10 -18 -10 -7 0 -6 4 3 10 19 12
23 12 15 0z"/>
<path d="M6061 1368 c-30 -14 -40 -22 -31 -28 10 -6 -2 -23 -42 -63 -60 -60
-50 -64 24 -9 44 33 119 123 101 121 -4 0 -28 -10 -52 -21z"/>
<path d="M5849 1336 c-2 -3 -16 -6 -29 -8 -24 -3 -70 -40 -70 -55 0 -4 -12
-17 -27 -30 l-28 -22 90 -1 c70 0 97 4 120 18 34 21 95 81 95 94 0 8 -143 12
-151 4z m-16 -53 c-7 -2 -19 -2 -25 0 -7 3 -2 5 12 5 14 0 19 -2 13 -5z m4
-19 c-3 -3 -12 -4 -19 -1 -8 3 -5 6 6 6 11 1 17 -2 13 -5z m-62 -15 c-15 -7
-12 -8 15 -4 25 4 31 2 20 -5 -8 -5 -28 -10 -44 -10 -24 0 -27 2 -16 15 7 8
20 15 29 14 12 0 12 -2 -4 -10z"/>
<path d="M1730 2630 c-56 -29 -80 -61 -87 -117 -7 -65 7 -74 55 -36 37 30 76
116 70 154 -3 16 -5 16 -38 -1z m-60 -135 c-17 -21 -1 -19 24 3 20 16 20 16 7
-1 -20 -25 -50 -41 -47 -24 2 15 15 37 23 37 3 0 0 -7 -7 -15z"/>
<path d="M1418 2625 c-15 -49 -41 -202 -33 -193 2 2 15 20 29 40 22 34 24 42
17 105 -4 41 -9 60 -13 48z"/>
<path d="M1563 2568 c-33 -36 -45 -90 -37 -155 7 -50 9 -54 14 -28 6 30 6 30
18 7 7 -12 10 -27 7 -32 -3 -6 -2 -10 2 -10 24 0 48 147 36 215 -6 31 -14 31
-40 3z"/>
<path d="M1900 2538 c-68 -33 -88 -47 -101 -74 -21 -43 -13 -43 78 0 59 29 76
42 93 75 11 23 19 41 18 40 -2 0 -41 -19 -88 -41z"/>
<path d="M1426 2450 c-28 -70 -15 -223 20 -237 8 -3 14 -9 14 -15 0 -5 -4 -7
-10 -3 -5 3 -5 -7 1 -25 6 -16 15 -30 19 -30 18 0 18 31 -1 66 -10 21 -19 45
-19 54 1 8 10 -2 20 -22 25 -46 38 -55 36 -24 0 13 -4 22 -7 20 -10 -6 -20 26
-12 38 3 7 1 8 -5 4 -7 -4 -12 -2 -12 3 0 20 27 11 38 -11 10 -19 11 -16 6 22
-13 91 -47 200 -63 200 -5 0 -16 -18 -25 -40z m24 -225 c0 -5 -5 -3 -10 5 -5
8 -10 20 -10 25 0 6 5 3 10 -5 5 -8 10 -19 10 -25z"/>
<path d="M1722 2460 c-13 -11 -38 -22 -55 -25 -26 -5 -35 -13 -43 -41 -6 -19
-7 -34 -3 -34 5 0 9 4 9 9 0 5 12 12 28 16 61 14 151 96 105 95 -10 -1 -28 -9
-41 -20z"/>
<path d="M1852 2436 c-49 -23 -61 -33 -57 -47 8 -25 -19 -73 -55 -99 -17 -12
-29 -24 -26 -27 8 -8 100 74 157 139 28 32 50 60 48 61 -2 1 -32 -11 -67 -27z"/>
<path d="M1680 2364 c-51 -23 -110 -74 -110 -94 0 -17 17 -19 45 -4 15 8 30
12 33 9 3 -2 -15 -14 -40 -25 -25 -11 -51 -27 -59 -36 -7 -9 23 2 68 25 173
87 230 201 63 125z m-40 -58 c0 -2 -7 -7 -16 -10 -8 -3 -12 -2 -9 4 6 10 25
14 25 6z"/>
<path d="M1369 2290 c-9 -16 -14 -55 -14 -110 0 -75 4 -93 32 -152 18 -38 34
-68 36 -68 7 0 1 83 -8 105 l-8 20 16 -20 c20 -25 21 -9 2 25 -8 14 -14 30
-14 35 0 6 7 -3 16 -19 12 -23 17 -26 24 -15 5 10 -2 34 -18 68 -14 29 -31 76
-38 104 -11 52 -12 52 -26 27z m27 -212 c9 -29 19 -59 22 -67 3 -9 1 -12 -6
-7 -9 5 -42 100 -42 120 0 19 11 0 26 -46z"/>
<path d="M1618 2214 c-37 -20 -79 -51 -93 -70 -14 -19 -23 -34 -19 -34 4 0 -3
-11 -16 -25 -13 -14 -18 -25 -11 -25 8 0 5 -10 -8 -29 -24 -33 -28 -57 -5 -26
8 11 18 20 22 20 14 0 112 88 107 96 -3 4 0 11 6 15 8 4 9 3 5 -4 -4 -7 -4
-12 1 -12 21 1 103 93 103 116 0 21 -19 17 -92 -22z m-72 -89 c-3 -17 -47 -67
-54 -60 -3 3 7 14 21 25 15 12 26 24 26 28 -2 11 1 22 5 22 2 0 3 -7 2 -15z
m43 -8 c-2 -2 -26 -23 -54 -47 l-50 -44 45 47 c24 26 48 47 54 47 5 0 7 -1 5
-3z"/>
<path d="M1149 2136 c-12 -12 12 -185 37 -258 14 -44 27 -78 29 -76 1 2 -1 26
-4 55 -4 29 -3 60 2 69 6 11 2 36 -16 83 -14 36 -30 81 -34 99 -5 18 -11 31
-14 28z"/>
<path d="M1575 2062 c-71 -68 -120 -136 -110 -152 5 -8 13 -6 26 6 27 24 24
41 -3 18 -16 -14 -15 -10 6 19 16 20 31 37 34 37 3 0 1 -5 -6 -12 -24 -24 -11
-31 16 -7 l27 24 -22 -26 c-29 -32 -30 -48 -1 -23 17 15 16 12 -5 -17 -42 -57
-31 -59 20 -4 25 28 36 37 24 20 -12 -16 -34 -48 -50 -70 -15 -22 -32 -51 -36
-65 -12 -37 81 96 114 165 29 58 48 145 33 145 -4 0 -34 -26 -67 -58z"/>
<path d="M1313 2078 c-33 -42 -42 -131 -17 -179 19 -38 83 -109 97 -109 6 0
-4 16 -23 35 -18 19 -32 37 -29 39 2 2 22 -17 44 -42 22 -25 33 -42 25 -37 -8
4 -4 -4 9 -18 25 -28 53 -38 31 -12 -7 8 -9 15 -5 15 4 0 2 6 -4 13 -6 8 -8
17 -5 20 3 3 -7 23 -22 44 -23 30 -24 34 -6 19 31 -27 27 -11 -10 38 l-32 41
32 -29 c29 -27 32 -28 32 -9 0 11 -9 28 -21 39 -12 10 -36 48 -53 82 -25 49
-35 61 -43 50z m99 -252 l22 -31 -28 25 c-15 14 -33 34 -39 45 -9 18 -9 19 7
6 9 -8 27 -28 38 -45z"/>
<path d="M1590 1883 c-90 -116 -115 -163 -91 -177 7 -4 9 -1 5 8 -6 17 24 68
36 61 5 -3 20 9 35 27 l26 33 -16 -30 c-9 -16 -27 -45 -41 -64 -29 -41 -40
-79 -27 -92 6 -6 28 15 60 54 59 74 83 117 83 150 0 35 -11 87 -19 87 -3 0
-26 -26 -51 -57z m32 -85 c-7 -7 -12 -8 -12 -2 0 6 3 14 7 17 3 4 9 5 12 2 2
-3 -1 -11 -7 -17z m-67 -98 c-19 -28 -35 -48 -35 -44 0 11 63 104 67 100 2 -2
-12 -27 -32 -56z"/>
<path d="M1486 1895 c-15 -20 -26 -40 -24 -46 2 -6 16 8 31 32 34 52 29 62 -7
14z"/>
<path d="M1245 1865 c10 -70 28 -108 66 -139 45 -36 124 -82 115 -67 -10 16 9
14 24 -4 9 -11 15 -12 25 -2 12 10 11 14 -3 25 -8 6 -12 12 -7 12 15 0 -28 41
-107 102 -43 33 -78 63 -78 67 0 3 -10 17 -21 31 l-20 25 6 -50z m200 -155
c10 -11 15 -20 10 -20 -4 0 -1 -7 6 -17 13 -15 12 -15 -6 -5 -36 21 -59 42
-52 48 3 3 -6 17 -21 30 l-27 25 36 -21 c20 -11 44 -29 54 -40z"/>
<path d="M1426 1705 c4 -8 11 -15 16 -15 6 0 5 6 -2 15 -7 8 -14 15 -16 15 -2
0 -1 -7 2 -15z"/>
<path d="M1486 1851 c-9 -16 -16 -36 -16 -43 1 -7 10 4 21 25 11 22 18 41 15
44 -2 3 -12 -9 -20 -26z"/>
<path d="M1628 1734 c-21 -27 -46 -60 -57 -74 -28 -37 -35 -71 -17 -95 14 -19
16 -18 60 30 51 56 71 109 58 156 l-8 32 -36 -49z m-8 -64 c0 -5 -5 -10 -11
-10 -5 0 -7 5 -4 10 3 6 8 10 11 10 2 0 4 -4 4 -10z m-9 -57 c-18 -31 -41 -57
-45 -52 -3 3 6 19 20 37 27 35 41 43 25 15z"/>
<path d="M1521 1743 c-10 -26 -10 -27 4 -9 8 11 15 23 15 28 0 15 -7 8 -19
-19z"/>
<path d="M1255 1688 c11 -36 56 -98 90 -123 41 -31 136 -78 143 -71 3 3 13 -1
22 -9 15 -14 18 -14 23 -1 8 20 -7 69 -22 74 -9 3 -11 0 -7 -7 4 -6 -9 -4 -28
6 -20 9 -31 20 -25 23 6 4 -3 13 -21 20 -17 7 -29 15 -27 17 3 2 25 -6 51 -18
32 -16 42 -26 33 -32 -9 -6 -8 -8 2 -5 8 3 16 9 18 14 3 9 -228 134 -248 134
-6 0 -8 -9 -4 -22z m265 -173 c0 -7 -54 18 -81 38 -14 10 -1 6 29 -8 28 -14
52 -27 52 -30z m-55 -3 c-4 -5 -75 37 -75 44 0 3 18 -5 40 -17 22 -12 38 -25
35 -27z"/>
<path d="M1677 1634 c-13 -21 -39 -52 -57 -69 -49 -46 -65 -82 -49 -111 16
-31 21 -30 43 7 13 22 21 27 26 19 6 -9 11 -7 19 6 19 34 11 9 -14 -44 -40
-84 -29 -83 22 3 38 63 48 90 51 136 2 31 0 65 -6 75 -8 15 -13 13 -35 -22z
m-72 -154 c-9 -18 -19 -30 -22 -27 -3 3 3 19 13 36 23 39 30 32 9 -9z"/>
<path d="M1325 1499 c63 -124 84 -142 171 -154 27 -3 64 -8 82 -11 40 -6 40 2
1 44 -16 17 -27 32 -23 32 17 0 -40 49 -64 55 -21 5 -100 41 -185 83 -5 2 4
-20 18 -49z m144 -40 c17 -5 20 -8 8 -8 -18 -1 -77 25 -77 35 0 2 10 -1 22 -7
12 -6 33 -15 47 -20z m56 -39 c13 -6 5 -7 -25 -3 -25 3 -47 7 -49 9 -9 8 55 2
74 -6z m-95 -30 c0 -5 -2 -10 -4 -10 -3 0 -8 5 -11 10 -3 6 -1 10 4 10 6 0 11
-4 11 -10z m114 2 c3 -5 -8 -6 -25 -4 -16 2 -29 6 -29 8 0 8 49 4 54 -4z m1
-23 c59 -17 29 -21 -35 -5 -32 8 -45 14 -30 15 14 0 43 -4 65 -10z"/>
<path d="M1746 1519 c-14 -11 -26 -25 -26 -30 0 -5 -16 -33 -35 -62 -36 -54
-54 -110 -38 -120 5 -3 18 16 28 44 11 27 22 49 26 49 4 0 -2 -25 -14 -55 -15
-42 -17 -59 -9 -67 9 -9 12 -8 12 3 0 22 31 122 36 117 2 -3 -4 -35 -13 -71
-14 -53 -15 -69 -5 -79 9 -9 12 -3 12 32 1 25 7 59 16 75 12 26 13 26 9 5 -20
-86 -11 -89 15 -5 29 97 39 185 21 185 -4 0 -20 -9 -35 -21z"/>
<path d="M1616 1441 c-18 -34 -19 -41 -8 -41 9 0 34 61 28 68 -3 2 -12 -10
-20 -27z"/>
<path d="M1817 1433 c-20 -23 -45 -125 -45 -183 l-1 -45 15 34 c17 40 17 44 3
35 -6 -3 -3 8 5 25 9 17 19 31 22 31 2 0 0 -9 -6 -20 -6 -11 -9 -24 -6 -29 3
-5 -1 -29 -10 -55 -16 -46 -13 -96 6 -96 6 0 10 19 10 43 0 23 4 48 9 55 4 8
7 -20 5 -65 -3 -78 -3 -78 7 -23 14 81 27 81 16 0 -9 -67 -9 -72 13 -95 28
-30 25 -31 -25 -5 -22 11 -48 20 -60 21 -11 0 -29 5 -40 10 -14 6 -5 7 30 4
28 -3 44 -2 37 1 -7 3 -19 19 -27 35 -9 16 -23 29 -33 29 -13 0 -14 2 -3 9 7
5 10 14 7 20 -9 14 -159 14 -226 0 l-52 -11 22 -23 c34 -36 157 -92 230 -105
98 -17 184 -56 300 -134 58 -39 135 -87 173 -106 57 -30 69 -33 77 -20 12 20
11 20 -105 69 -118 49 -185 95 -221 153 -25 39 -27 52 -33 198 -7 145 -9 158
-36 208 -15 28 -31 52 -35 52 -4 0 -14 -8 -23 -17z m53 -308 l-7 -60 -2 56 c0
31 2 59 6 62 11 12 11 4 3 -58z m-160 35 c12 -8 9 -10 -12 -10 -16 0 -28 5
-28 10 0 13 20 13 40 0z m25 -42 c15 -6 11 -7 -14 -3 -18 3 -57 5 -85 5 -31 0
-46 4 -38 9 15 9 108 2 137 -11z m-72 -15 c-7 -2 -21 -2 -30 0 -10 3 -4 5 12
5 17 0 24 -2 18 -5z m94 -9 c-3 -3 -12 -4 -19 -1 -8 3 -5 6 6 6 11 1 17 -2 13
-5z"/>
<path d="M1291 1364 c50 -69 69 -89 109 -118 74 -53 77 -52 23 7 -29 30 -51
62 -48 69 3 8 -11 20 -38 32 -23 11 -46 22 -51 24 -5 3 -3 -4 5 -14z"/>
<path d="M1415 1320 c-14 -5 -9 -13 22 -46 57 -59 97 -74 193 -74 72 0 81 2
70 15 -7 8 -19 15 -27 15 -8 0 -12 4 -9 9 3 4 -7 22 -23 40 -27 30 -34 33
-119 39 -50 4 -98 5 -107 2z m190 -50 c13 -6 15 -9 5 -9 -8 0 -22 4 -30 9 -18
12 -2 12 25 0z m-8 -26 c-3 -3 -12 -4 -19 -1 -8 3 -5 6 6 6 11 1 17 -2 13 -5z
m68 -26 c7 -7 2 -9 -15 -4 -14 3 -41 6 -60 7 l-35 1 30 8 c33 8 65 3 80 -12z"/>
<path d="M3655 2592 c-3 -3 -5 -16 -5 -29 0 -21 4 -24 33 -21 24 2 33 8 35 26
2 12 0 22 -5 23 -4 0 -18 2 -31 3 -12 2 -24 0 -27 -2z"/>
<path d="M3250 2548 c0 -9 -3 -23 -6 -32 -4 -12 0 -16 15 -16 25 0 25 6 6 40
-10 18 -14 20 -15 8z"/>
<path d="M3092 2533 c2 -23 7 -27 28 -24 49 6 48 51 -2 51 -26 0 -29 -3 -26
-27z"/>
<path d="M3102 2463 c2 -23 7 -27 28 -25 53 8 53 52 0 52 -28 0 -31 -3 -28
-27z"/>
<path d="M4147 2552 c-20 -22 -22 -83 -5 -100 19 -19 55 -14 72 10 45 63 -17
145 -67 90z"/>
<path d="M4426 2498 c-17 -24 -21 -65 -8 -85 4 -6 19 -14 33 -18 42 -10 78 50
59 101 -13 32 -62 33 -84 2z"/>
<path d="M2605 2440 c-3 -5 -3 -20 1 -34 5 -22 8 -23 35 -14 21 7 29 16 29 34
0 20 -5 24 -29 24 -17 0 -32 -4 -36 -10z"/>
<path d="M4468 2163 c-2 -5 -2 -86 0 -180 3 -170 4 -173 25 -173 40 1 105 37
121 69 22 41 22 179 0 224 -9 19 -29 41 -44 51 -28 16 -96 22 -102 9z"/>
<path d="M2928 2143 c-26 -4 -26 -5 -32 -111 -4 -59 -9 -140 -12 -179 l-6 -73
71 0 71 0 -1 78 c-1 103 -13 269 -19 275 -10 9 -45 14 -72 10z"/>
<path d="M2334 2088 l-30 -10 4 -136 c2 -76 5 -138 6 -139 1 -1 32 3 68 9 64
10 66 12 76 47 30 106 22 184 -25 220 -28 23 -51 25 -99 9z"/>
<path d="M2343 1723 l-33 -4 0 -145 c0 -163 0 -163 71 -144 48 13 83 40 105
82 18 35 18 131 -1 167 -14 28 -61 53 -94 49 -9 0 -31 -3 -48 -5z"/>
<path d="M3560 1142 c0 -24 5 -31 25 -34 14 -3 33 1 42 8 25 18 5 48 -36 52
-28 3 -31 1 -31 -26z"/>
<path d="M3127 1109 c-10 -38 -8 -45 13 -45 23 0 25 11 6 45 l-13 23 -6 -23z"/>
<path d="M4246 1118 c-24 -33 -20 -84 6 -102 31 -22 54 -20 72 6 19 27 21 89
4 106 -20 20 -65 14 -82 -10z"/>
<path d="M2960 1100 c0 -23 5 -30 19 -30 35 0 51 12 51 36 0 21 -5 24 -35 24
-32 0 -35 -2 -35 -30z"/>
<path d="M2970 1030 c0 -29 2 -31 33 -28 27 2 32 7 32 28 0 21 -5 26 -32 28
-31 3 -33 1 -33 -28z"/>
<path d="M4414 1097 c-7 -33 6 -47 43 -47 28 0 49 35 33 55 -6 7 -24 15 -40
17 -26 4 -30 1 -36 -25z"/>
</g>
</svg>
